<mxfile host="app.diagrams.net" agent="Mozilla/5.0 (Windows NT 10.0; Win64; x64) AppleWebKit/537.36 (KHTML, like Gecko) Chrome/127.0.0.0 Safari/537.36 OPR/113.0.0.0" version="24.8.0">
  <diagram name="Страница — 1" id="0Lx8X4sOUITFSpwP8iDU">
    <mxGraphModel dx="331" dy="445" grid="1" gridSize="10" guides="1" tooltips="1" connect="0" arrows="1" fold="1" page="1" pageScale="1" pageWidth="827" pageHeight="1169" math="0" shadow="0">
      <root>
        <mxCell id="0" />
        <mxCell id="1" parent="0" />
        <mxCell id="-p_3wmiXi3rpDoXbvj0b-48" style="edgeStyle=orthogonalEdgeStyle;rounded=0;orthogonalLoop=1;jettySize=auto;html=1;exitX=1;exitY=0.5;exitDx=0;exitDy=0;entryX=0;entryY=0.5;entryDx=0;entryDy=0;" parent="1" source="-p_3wmiXi3rpDoXbvj0b-1" target="-p_3wmiXi3rpDoXbvj0b-23" edge="1">
          <mxGeometry relative="1" as="geometry" />
        </mxCell>
        <mxCell id="-p_3wmiXi3rpDoXbvj0b-1" value="Определение роли" style="rounded=0;whiteSpace=wrap;html=1;" parent="1" vertex="1">
          <mxGeometry x="520" y="230" width="120" height="70" as="geometry" />
        </mxCell>
        <mxCell id="-p_3wmiXi3rpDoXbvj0b-4" value="" style="endArrow=none;html=1;rounded=0;entryX=0.168;entryY=0.005;entryDx=0;entryDy=0;entryPerimeter=0;exitX=0;exitY=0.25;exitDx=0;exitDy=0;" parent="1" source="-p_3wmiXi3rpDoXbvj0b-1" target="-p_3wmiXi3rpDoXbvj0b-1" edge="1">
          <mxGeometry width="50" height="50" relative="1" as="geometry">
            <mxPoint x="520" y="250" as="sourcePoint" />
            <mxPoint x="570" y="200" as="targetPoint" />
          </mxGeometry>
        </mxCell>
        <mxCell id="-p_3wmiXi3rpDoXbvj0b-5" value="" style="endArrow=none;html=1;rounded=0;exitX=0;exitY=0.75;exitDx=0;exitDy=0;entryX=1;entryY=0.75;entryDx=0;entryDy=0;" parent="1" edge="1">
          <mxGeometry width="50" height="50" relative="1" as="geometry">
            <mxPoint x="520" y="279.5" as="sourcePoint" />
            <mxPoint x="640" y="279.5" as="targetPoint" />
          </mxGeometry>
        </mxCell>
        <mxCell id="-p_3wmiXi3rpDoXbvj0b-6" value="" style="endArrow=none;html=1;rounded=0;exitX=0.5;exitY=1;exitDx=0;exitDy=0;" parent="1" source="-p_3wmiXi3rpDoXbvj0b-1" edge="1">
          <mxGeometry width="50" height="50" relative="1" as="geometry">
            <mxPoint x="560" y="280" as="sourcePoint" />
            <mxPoint x="580" y="280" as="targetPoint" />
          </mxGeometry>
        </mxCell>
        <mxCell id="-p_3wmiXi3rpDoXbvj0b-52" style="edgeStyle=orthogonalEdgeStyle;rounded=0;orthogonalLoop=1;jettySize=auto;html=1;exitX=1;exitY=0.5;exitDx=0;exitDy=0;entryX=0.5;entryY=0;entryDx=0;entryDy=0;" parent="1" source="-p_3wmiXi3rpDoXbvj0b-7" target="-p_3wmiXi3rpDoXbvj0b-24" edge="1">
          <mxGeometry relative="1" as="geometry" />
        </mxCell>
        <mxCell id="-p_3wmiXi3rpDoXbvj0b-7" value="Роль учителя" style="rounded=0;whiteSpace=wrap;html=1;" parent="1" vertex="1">
          <mxGeometry x="760" y="130" width="120" height="70" as="geometry" />
        </mxCell>
        <mxCell id="-p_3wmiXi3rpDoXbvj0b-8" value="" style="endArrow=none;html=1;rounded=0;entryX=0.168;entryY=0.005;entryDx=0;entryDy=0;entryPerimeter=0;exitX=0;exitY=0.25;exitDx=0;exitDy=0;" parent="1" source="-p_3wmiXi3rpDoXbvj0b-7" target="-p_3wmiXi3rpDoXbvj0b-7" edge="1">
          <mxGeometry width="50" height="50" relative="1" as="geometry">
            <mxPoint x="760" y="150" as="sourcePoint" />
            <mxPoint x="810" y="100" as="targetPoint" />
          </mxGeometry>
        </mxCell>
        <mxCell id="-p_3wmiXi3rpDoXbvj0b-9" value="" style="endArrow=none;html=1;rounded=0;exitX=0;exitY=0.75;exitDx=0;exitDy=0;entryX=1;entryY=0.75;entryDx=0;entryDy=0;" parent="1" edge="1">
          <mxGeometry width="50" height="50" relative="1" as="geometry">
            <mxPoint x="760" y="179.5" as="sourcePoint" />
            <mxPoint x="880" y="179.5" as="targetPoint" />
          </mxGeometry>
        </mxCell>
        <mxCell id="-p_3wmiXi3rpDoXbvj0b-10" value="" style="endArrow=none;html=1;rounded=0;exitX=0.5;exitY=1;exitDx=0;exitDy=0;" parent="1" source="-p_3wmiXi3rpDoXbvj0b-7" edge="1">
          <mxGeometry width="50" height="50" relative="1" as="geometry">
            <mxPoint x="800" y="180" as="sourcePoint" />
            <mxPoint x="820" y="180" as="targetPoint" />
          </mxGeometry>
        </mxCell>
        <mxCell id="-p_3wmiXi3rpDoXbvj0b-54" style="edgeStyle=orthogonalEdgeStyle;rounded=0;orthogonalLoop=1;jettySize=auto;html=1;exitX=1;exitY=0.5;exitDx=0;exitDy=0;entryX=0;entryY=0.5;entryDx=0;entryDy=0;" parent="1" source="-p_3wmiXi3rpDoXbvj0b-11" target="-p_3wmiXi3rpDoXbvj0b-24" edge="1">
          <mxGeometry relative="1" as="geometry" />
        </mxCell>
        <mxCell id="-p_3wmiXi3rpDoXbvj0b-11" value="Роль администратора" style="rounded=0;whiteSpace=wrap;html=1;" parent="1" vertex="1">
          <mxGeometry x="760" y="230" width="120" height="70" as="geometry" />
        </mxCell>
        <mxCell id="-p_3wmiXi3rpDoXbvj0b-12" value="" style="endArrow=none;html=1;rounded=0;entryX=0.168;entryY=0.005;entryDx=0;entryDy=0;entryPerimeter=0;exitX=0;exitY=0.25;exitDx=0;exitDy=0;" parent="1" source="-p_3wmiXi3rpDoXbvj0b-11" target="-p_3wmiXi3rpDoXbvj0b-11" edge="1">
          <mxGeometry width="50" height="50" relative="1" as="geometry">
            <mxPoint x="760" y="250" as="sourcePoint" />
            <mxPoint x="810" y="200" as="targetPoint" />
          </mxGeometry>
        </mxCell>
        <mxCell id="-p_3wmiXi3rpDoXbvj0b-13" value="" style="endArrow=none;html=1;rounded=0;exitX=0;exitY=0.75;exitDx=0;exitDy=0;entryX=1;entryY=0.75;entryDx=0;entryDy=0;" parent="1" edge="1">
          <mxGeometry width="50" height="50" relative="1" as="geometry">
            <mxPoint x="760" y="279.5" as="sourcePoint" />
            <mxPoint x="880" y="279.5" as="targetPoint" />
          </mxGeometry>
        </mxCell>
        <mxCell id="-p_3wmiXi3rpDoXbvj0b-14" value="" style="endArrow=none;html=1;rounded=0;exitX=0.5;exitY=1;exitDx=0;exitDy=0;" parent="1" source="-p_3wmiXi3rpDoXbvj0b-11" edge="1">
          <mxGeometry width="50" height="50" relative="1" as="geometry">
            <mxPoint x="800" y="280" as="sourcePoint" />
            <mxPoint x="820" y="280" as="targetPoint" />
          </mxGeometry>
        </mxCell>
        <mxCell id="-p_3wmiXi3rpDoXbvj0b-53" style="edgeStyle=orthogonalEdgeStyle;rounded=0;orthogonalLoop=1;jettySize=auto;html=1;exitX=1;exitY=0.5;exitDx=0;exitDy=0;" parent="1" source="-p_3wmiXi3rpDoXbvj0b-15" edge="1">
          <mxGeometry relative="1" as="geometry">
            <mxPoint x="940" y="280" as="targetPoint" />
          </mxGeometry>
        </mxCell>
        <mxCell id="-p_3wmiXi3rpDoXbvj0b-15" value="Роль контроллёра" style="rounded=0;whiteSpace=wrap;html=1;" parent="1" vertex="1">
          <mxGeometry x="760" y="330" width="120" height="70" as="geometry" />
        </mxCell>
        <mxCell id="-p_3wmiXi3rpDoXbvj0b-16" value="" style="endArrow=none;html=1;rounded=0;entryX=0.168;entryY=0.005;entryDx=0;entryDy=0;entryPerimeter=0;exitX=0;exitY=0.25;exitDx=0;exitDy=0;" parent="1" source="-p_3wmiXi3rpDoXbvj0b-15" target="-p_3wmiXi3rpDoXbvj0b-15" edge="1">
          <mxGeometry width="50" height="50" relative="1" as="geometry">
            <mxPoint x="760" y="350" as="sourcePoint" />
            <mxPoint x="810" y="300" as="targetPoint" />
          </mxGeometry>
        </mxCell>
        <mxCell id="-p_3wmiXi3rpDoXbvj0b-17" value="" style="endArrow=none;html=1;rounded=0;exitX=0;exitY=0.75;exitDx=0;exitDy=0;entryX=1;entryY=0.75;entryDx=0;entryDy=0;" parent="1" edge="1">
          <mxGeometry width="50" height="50" relative="1" as="geometry">
            <mxPoint x="760" y="379.5" as="sourcePoint" />
            <mxPoint x="880" y="379.5" as="targetPoint" />
          </mxGeometry>
        </mxCell>
        <mxCell id="-p_3wmiXi3rpDoXbvj0b-18" value="" style="endArrow=none;html=1;rounded=0;exitX=0.5;exitY=1;exitDx=0;exitDy=0;" parent="1" source="-p_3wmiXi3rpDoXbvj0b-15" edge="1">
          <mxGeometry width="50" height="50" relative="1" as="geometry">
            <mxPoint x="800" y="380" as="sourcePoint" />
            <mxPoint x="820" y="380" as="targetPoint" />
          </mxGeometry>
        </mxCell>
        <mxCell id="-p_3wmiXi3rpDoXbvj0b-19" value="Конец авторизации" style="rounded=0;whiteSpace=wrap;html=1;" parent="1" vertex="1">
          <mxGeometry x="1000" y="230" width="120" height="70" as="geometry" />
        </mxCell>
        <mxCell id="-p_3wmiXi3rpDoXbvj0b-20" value="" style="endArrow=none;html=1;rounded=0;entryX=0.168;entryY=0.005;entryDx=0;entryDy=0;entryPerimeter=0;exitX=0;exitY=0.25;exitDx=0;exitDy=0;" parent="1" source="-p_3wmiXi3rpDoXbvj0b-19" target="-p_3wmiXi3rpDoXbvj0b-19" edge="1">
          <mxGeometry width="50" height="50" relative="1" as="geometry">
            <mxPoint x="1000" y="250" as="sourcePoint" />
            <mxPoint x="1050" y="200" as="targetPoint" />
          </mxGeometry>
        </mxCell>
        <mxCell id="-p_3wmiXi3rpDoXbvj0b-21" value="" style="endArrow=none;html=1;rounded=0;exitX=0;exitY=0.75;exitDx=0;exitDy=0;entryX=1;entryY=0.75;entryDx=0;entryDy=0;" parent="1" edge="1">
          <mxGeometry width="50" height="50" relative="1" as="geometry">
            <mxPoint x="1000" y="279.5" as="sourcePoint" />
            <mxPoint x="1120" y="279.5" as="targetPoint" />
          </mxGeometry>
        </mxCell>
        <mxCell id="-p_3wmiXi3rpDoXbvj0b-22" value="" style="endArrow=none;html=1;rounded=0;exitX=0.5;exitY=1;exitDx=0;exitDy=0;" parent="1" source="-p_3wmiXi3rpDoXbvj0b-19" edge="1">
          <mxGeometry width="50" height="50" relative="1" as="geometry">
            <mxPoint x="1040" y="280" as="sourcePoint" />
            <mxPoint x="1060" y="280" as="targetPoint" />
          </mxGeometry>
        </mxCell>
        <mxCell id="-p_3wmiXi3rpDoXbvj0b-49" style="edgeStyle=orthogonalEdgeStyle;rounded=0;orthogonalLoop=1;jettySize=auto;html=1;exitX=0.501;exitY=0.011;exitDx=0;exitDy=0;entryX=0;entryY=0.5;entryDx=0;entryDy=0;exitPerimeter=0;" parent="1" source="-p_3wmiXi3rpDoXbvj0b-23" target="-p_3wmiXi3rpDoXbvj0b-7" edge="1">
          <mxGeometry relative="1" as="geometry">
            <Array as="points">
              <mxPoint x="710" y="165" />
            </Array>
          </mxGeometry>
        </mxCell>
        <mxCell id="-p_3wmiXi3rpDoXbvj0b-50" style="edgeStyle=orthogonalEdgeStyle;rounded=0;orthogonalLoop=1;jettySize=auto;html=1;exitX=1;exitY=0.5;exitDx=0;exitDy=0;entryX=0;entryY=0.5;entryDx=0;entryDy=0;" parent="1" source="-p_3wmiXi3rpDoXbvj0b-23" target="-p_3wmiXi3rpDoXbvj0b-11" edge="1">
          <mxGeometry relative="1" as="geometry" />
        </mxCell>
        <mxCell id="-p_3wmiXi3rpDoXbvj0b-23" value="" style="rounded=0;whiteSpace=wrap;html=1;" parent="1" vertex="1">
          <mxGeometry x="690" y="252.5" width="40" height="25" as="geometry" />
        </mxCell>
        <mxCell id="-p_3wmiXi3rpDoXbvj0b-55" value="" style="edgeStyle=orthogonalEdgeStyle;rounded=0;orthogonalLoop=1;jettySize=auto;html=1;" parent="1" source="-p_3wmiXi3rpDoXbvj0b-24" target="-p_3wmiXi3rpDoXbvj0b-19" edge="1">
          <mxGeometry relative="1" as="geometry" />
        </mxCell>
        <mxCell id="-p_3wmiXi3rpDoXbvj0b-24" value="" style="rounded=0;whiteSpace=wrap;html=1;" parent="1" vertex="1">
          <mxGeometry x="920" y="252.5" width="40" height="25" as="geometry" />
        </mxCell>
        <mxCell id="-p_3wmiXi3rpDoXbvj0b-25" value="" style="rounded=0;whiteSpace=wrap;html=1;" parent="1" vertex="1">
          <mxGeometry x="106.25" y="240" width="120" height="70" as="geometry" />
        </mxCell>
        <mxCell id="-p_3wmiXi3rpDoXbvj0b-26" value="" style="endArrow=none;html=1;rounded=0;entryX=0.168;entryY=0.005;entryDx=0;entryDy=0;entryPerimeter=0;exitX=0;exitY=0.25;exitDx=0;exitDy=0;" parent="1" source="-p_3wmiXi3rpDoXbvj0b-25" target="-p_3wmiXi3rpDoXbvj0b-25" edge="1">
          <mxGeometry width="50" height="50" relative="1" as="geometry">
            <mxPoint x="106.25" y="260" as="sourcePoint" />
            <mxPoint x="156.25" y="210" as="targetPoint" />
          </mxGeometry>
        </mxCell>
        <mxCell id="-p_3wmiXi3rpDoXbvj0b-27" value="" style="endArrow=none;html=1;rounded=0;exitX=0;exitY=0.75;exitDx=0;exitDy=0;entryX=1;entryY=0.75;entryDx=0;entryDy=0;" parent="1" edge="1">
          <mxGeometry width="50" height="50" relative="1" as="geometry">
            <mxPoint x="106.25" y="289.5" as="sourcePoint" />
            <mxPoint x="226.25" y="289.5" as="targetPoint" />
          </mxGeometry>
        </mxCell>
        <mxCell id="-p_3wmiXi3rpDoXbvj0b-28" value="" style="endArrow=none;html=1;rounded=0;exitX=0.5;exitY=1;exitDx=0;exitDy=0;" parent="1" source="-p_3wmiXi3rpDoXbvj0b-25" edge="1">
          <mxGeometry width="50" height="50" relative="1" as="geometry">
            <mxPoint x="146.25" y="290" as="sourcePoint" />
            <mxPoint x="166.25" y="290" as="targetPoint" />
          </mxGeometry>
        </mxCell>
        <mxCell id="-p_3wmiXi3rpDoXbvj0b-29" value="" style="ellipse;whiteSpace=wrap;html=1;aspect=fixed;" parent="1" vertex="1">
          <mxGeometry x="703.75" y="258.75" width="12.5" height="12.5" as="geometry" />
        </mxCell>
        <mxCell id="-p_3wmiXi3rpDoXbvj0b-30" value="" style="endArrow=none;html=1;rounded=0;entryX=0.25;entryY=0;entryDx=0;entryDy=0;" parent="1" target="-p_3wmiXi3rpDoXbvj0b-23" edge="1">
          <mxGeometry width="50" height="50" relative="1" as="geometry">
            <mxPoint x="700" y="277" as="sourcePoint" />
            <mxPoint x="700" y="250" as="targetPoint" />
          </mxGeometry>
        </mxCell>
        <mxCell id="-p_3wmiXi3rpDoXbvj0b-34" value="" style="rounded=0;whiteSpace=wrap;html=1;" parent="1" vertex="1">
          <mxGeometry x="270" y="260" width="40" height="25" as="geometry" />
        </mxCell>
        <mxCell id="-p_3wmiXi3rpDoXbvj0b-35" value="" style="ellipse;whiteSpace=wrap;html=1;aspect=fixed;" parent="1" vertex="1">
          <mxGeometry x="283.75" y="266.25" width="12.5" height="12.5" as="geometry" />
        </mxCell>
        <mxCell id="-p_3wmiXi3rpDoXbvj0b-36" value="" style="endArrow=none;html=1;rounded=0;entryX=0.25;entryY=0;entryDx=0;entryDy=0;" parent="1" target="-p_3wmiXi3rpDoXbvj0b-34" edge="1">
          <mxGeometry width="50" height="50" relative="1" as="geometry">
            <mxPoint x="280" y="284.5" as="sourcePoint" />
            <mxPoint x="280" y="257.5" as="targetPoint" />
          </mxGeometry>
        </mxCell>
        <mxCell id="-p_3wmiXi3rpDoXbvj0b-37" value="" style="endArrow=none;html=1;rounded=0;entryX=0.25;entryY=0;entryDx=0;entryDy=0;exitX=0.25;exitY=1;exitDx=0;exitDy=0;" parent="1" source="-p_3wmiXi3rpDoXbvj0b-24" target="-p_3wmiXi3rpDoXbvj0b-24" edge="1">
          <mxGeometry width="50" height="50" relative="1" as="geometry">
            <mxPoint x="910" y="300" as="sourcePoint" />
            <mxPoint x="960" y="250" as="targetPoint" />
          </mxGeometry>
        </mxCell>
        <mxCell id="-p_3wmiXi3rpDoXbvj0b-38" value="" style="endArrow=none;html=1;rounded=0;" parent="1" edge="1">
          <mxGeometry width="50" height="50" relative="1" as="geometry">
            <mxPoint x="935" y="270" as="sourcePoint" />
            <mxPoint x="945" y="260" as="targetPoint" />
          </mxGeometry>
        </mxCell>
        <mxCell id="-p_3wmiXi3rpDoXbvj0b-39" value="" style="endArrow=none;html=1;rounded=0;" parent="1" edge="1">
          <mxGeometry width="50" height="50" relative="1" as="geometry">
            <mxPoint x="945" y="270" as="sourcePoint" />
            <mxPoint x="935" y="260" as="targetPoint" />
          </mxGeometry>
        </mxCell>
        <mxCell id="-p_3wmiXi3rpDoXbvj0b-44" value="" style="rounded=0;whiteSpace=wrap;html=1;" parent="1" vertex="1">
          <mxGeometry x="346.25" y="260" width="40" height="25" as="geometry" />
        </mxCell>
        <mxCell id="-p_3wmiXi3rpDoXbvj0b-45" value="" style="endArrow=none;html=1;rounded=0;entryX=0.25;entryY=0;entryDx=0;entryDy=0;exitX=0.25;exitY=1;exitDx=0;exitDy=0;" parent="1" source="-p_3wmiXi3rpDoXbvj0b-44" target="-p_3wmiXi3rpDoXbvj0b-44" edge="1">
          <mxGeometry width="50" height="50" relative="1" as="geometry">
            <mxPoint x="336.25" y="307.5" as="sourcePoint" />
            <mxPoint x="386.25" y="257.5" as="targetPoint" />
          </mxGeometry>
        </mxCell>
        <mxCell id="-p_3wmiXi3rpDoXbvj0b-46" value="" style="endArrow=none;html=1;rounded=0;" parent="1" edge="1">
          <mxGeometry width="50" height="50" relative="1" as="geometry">
            <mxPoint x="361.25" y="277.5" as="sourcePoint" />
            <mxPoint x="371.25" y="267.5" as="targetPoint" />
          </mxGeometry>
        </mxCell>
        <mxCell id="-p_3wmiXi3rpDoXbvj0b-47" value="" style="endArrow=none;html=1;rounded=0;" parent="1" edge="1">
          <mxGeometry width="50" height="50" relative="1" as="geometry">
            <mxPoint x="371.25" y="277.5" as="sourcePoint" />
            <mxPoint x="361.25" y="267.5" as="targetPoint" />
          </mxGeometry>
        </mxCell>
        <mxCell id="-p_3wmiXi3rpDoXbvj0b-51" style="edgeStyle=orthogonalEdgeStyle;rounded=0;orthogonalLoop=1;jettySize=auto;html=1;entryX=0;entryY=0.571;entryDx=0;entryDy=0;entryPerimeter=0;" parent="1" target="-p_3wmiXi3rpDoXbvj0b-15" edge="1">
          <mxGeometry relative="1" as="geometry">
            <mxPoint x="710" y="277" as="sourcePoint" />
            <Array as="points">
              <mxPoint x="710" y="277" />
              <mxPoint x="710" y="370" />
            </Array>
          </mxGeometry>
        </mxCell>
        <mxCell id="-p_3wmiXi3rpDoXbvj0b-65" value="&lt;div style=&quot;&quot;&gt;&lt;span style=&quot;font-size: 11px; background-color: initial;&quot;&gt;&lt;font face=&quot;Times New Roman&quot;&gt;Просмотр списка уроков удовлетворяющих требованиям&lt;/font&gt;&lt;/span&gt;&lt;/div&gt;&lt;div style=&quot;&quot;&gt;&lt;span style=&quot;font-size: 11px; background-color: initial;&quot;&gt;&lt;font face=&quot;Times New Roman&quot;&gt;&lt;br&gt;&lt;/font&gt;&lt;/span&gt;&lt;/div&gt;" style="rounded=0;whiteSpace=wrap;html=1;align=center;" parent="1" vertex="1">
          <mxGeometry x="160" y="565" width="120" height="70" as="geometry" />
        </mxCell>
        <mxCell id="-p_3wmiXi3rpDoXbvj0b-66" value="" style="endArrow=none;html=1;rounded=0;entryX=0.168;entryY=0.005;entryDx=0;entryDy=0;entryPerimeter=0;exitX=0;exitY=0.25;exitDx=0;exitDy=0;" parent="1" source="-p_3wmiXi3rpDoXbvj0b-65" target="-p_3wmiXi3rpDoXbvj0b-65" edge="1">
          <mxGeometry width="50" height="50" relative="1" as="geometry">
            <mxPoint x="160" y="585" as="sourcePoint" />
            <mxPoint x="210" y="535" as="targetPoint" />
          </mxGeometry>
        </mxCell>
        <mxCell id="-p_3wmiXi3rpDoXbvj0b-67" value="" style="endArrow=none;html=1;rounded=0;exitX=0;exitY=0.75;exitDx=0;exitDy=0;entryX=1;entryY=0.75;entryDx=0;entryDy=0;" parent="1" edge="1">
          <mxGeometry width="50" height="50" relative="1" as="geometry">
            <mxPoint x="160" y="614.5" as="sourcePoint" />
            <mxPoint x="280" y="614.5" as="targetPoint" />
          </mxGeometry>
        </mxCell>
        <mxCell id="-p_3wmiXi3rpDoXbvj0b-68" value="" style="endArrow=none;html=1;rounded=0;exitX=0.5;exitY=1;exitDx=0;exitDy=0;" parent="1" source="-p_3wmiXi3rpDoXbvj0b-65" edge="1">
          <mxGeometry width="50" height="50" relative="1" as="geometry">
            <mxPoint x="200" y="615" as="sourcePoint" />
            <mxPoint x="220" y="615" as="targetPoint" />
          </mxGeometry>
        </mxCell>
        <mxCell id="-p_3wmiXi3rpDoXbvj0b-69" value="Фильтрация уроков" style="rounded=0;whiteSpace=wrap;html=1;" parent="1" vertex="1">
          <mxGeometry x="380" y="510" width="120" height="70" as="geometry" />
        </mxCell>
        <mxCell id="-p_3wmiXi3rpDoXbvj0b-70" value="" style="endArrow=none;html=1;rounded=0;entryX=0.168;entryY=0.005;entryDx=0;entryDy=0;entryPerimeter=0;exitX=0;exitY=0.25;exitDx=0;exitDy=0;" parent="1" source="-p_3wmiXi3rpDoXbvj0b-69" target="-p_3wmiXi3rpDoXbvj0b-69" edge="1">
          <mxGeometry width="50" height="50" relative="1" as="geometry">
            <mxPoint x="380" y="530" as="sourcePoint" />
            <mxPoint x="430" y="480" as="targetPoint" />
          </mxGeometry>
        </mxCell>
        <mxCell id="-p_3wmiXi3rpDoXbvj0b-71" value="" style="endArrow=none;html=1;rounded=0;exitX=0;exitY=0.75;exitDx=0;exitDy=0;entryX=1;entryY=0.75;entryDx=0;entryDy=0;" parent="1" edge="1">
          <mxGeometry width="50" height="50" relative="1" as="geometry">
            <mxPoint x="380" y="559.5" as="sourcePoint" />
            <mxPoint x="500" y="559.5" as="targetPoint" />
          </mxGeometry>
        </mxCell>
        <mxCell id="-p_3wmiXi3rpDoXbvj0b-72" value="" style="endArrow=none;html=1;rounded=0;exitX=0.5;exitY=1;exitDx=0;exitDy=0;" parent="1" source="-p_3wmiXi3rpDoXbvj0b-69" edge="1">
          <mxGeometry width="50" height="50" relative="1" as="geometry">
            <mxPoint x="420" y="560" as="sourcePoint" />
            <mxPoint x="440" y="560" as="targetPoint" />
          </mxGeometry>
        </mxCell>
        <mxCell id="-p_3wmiXi3rpDoXbvj0b-73" value="Сортировка уроков" style="rounded=0;whiteSpace=wrap;html=1;" parent="1" vertex="1">
          <mxGeometry x="380" y="620" width="120" height="70" as="geometry" />
        </mxCell>
        <mxCell id="-p_3wmiXi3rpDoXbvj0b-74" value="" style="endArrow=none;html=1;rounded=0;entryX=0.168;entryY=0.005;entryDx=0;entryDy=0;entryPerimeter=0;exitX=0;exitY=0.25;exitDx=0;exitDy=0;" parent="1" source="-p_3wmiXi3rpDoXbvj0b-73" target="-p_3wmiXi3rpDoXbvj0b-73" edge="1">
          <mxGeometry width="50" height="50" relative="1" as="geometry">
            <mxPoint x="380" y="640" as="sourcePoint" />
            <mxPoint x="430" y="590" as="targetPoint" />
          </mxGeometry>
        </mxCell>
        <mxCell id="-p_3wmiXi3rpDoXbvj0b-75" value="" style="endArrow=none;html=1;rounded=0;exitX=0;exitY=0.75;exitDx=0;exitDy=0;entryX=1;entryY=0.75;entryDx=0;entryDy=0;" parent="1" edge="1">
          <mxGeometry width="50" height="50" relative="1" as="geometry">
            <mxPoint x="380" y="669.5" as="sourcePoint" />
            <mxPoint x="500" y="669.5" as="targetPoint" />
          </mxGeometry>
        </mxCell>
        <mxCell id="-p_3wmiXi3rpDoXbvj0b-76" value="" style="endArrow=none;html=1;rounded=0;exitX=0.5;exitY=1;exitDx=0;exitDy=0;" parent="1" source="-p_3wmiXi3rpDoXbvj0b-73" edge="1">
          <mxGeometry width="50" height="50" relative="1" as="geometry">
            <mxPoint x="420" y="670" as="sourcePoint" />
            <mxPoint x="440" y="670" as="targetPoint" />
          </mxGeometry>
        </mxCell>
        <mxCell id="-p_3wmiXi3rpDoXbvj0b-84" value="" style="edgeStyle=orthogonalEdgeStyle;rounded=0;orthogonalLoop=1;jettySize=auto;html=1;entryX=-0.004;entryY=0.499;entryDx=0;entryDy=0;entryPerimeter=0;" parent="1" source="-p_3wmiXi3rpDoXbvj0b-78" target="-p_3wmiXi3rpDoXbvj0b-73" edge="1">
          <mxGeometry relative="1" as="geometry">
            <Array as="points">
              <mxPoint x="360" y="600" />
              <mxPoint x="360" y="655" />
            </Array>
          </mxGeometry>
        </mxCell>
        <mxCell id="-p_3wmiXi3rpDoXbvj0b-78" value="" style="rounded=0;whiteSpace=wrap;html=1;" parent="1" vertex="1">
          <mxGeometry x="310" y="587.5" width="40" height="25" as="geometry" />
        </mxCell>
        <mxCell id="-p_3wmiXi3rpDoXbvj0b-79" value="" style="ellipse;whiteSpace=wrap;html=1;aspect=fixed;" parent="1" vertex="1">
          <mxGeometry x="323.75" y="593.75" width="12.5" height="12.5" as="geometry" />
        </mxCell>
        <mxCell id="-p_3wmiXi3rpDoXbvj0b-80" value="" style="endArrow=none;html=1;rounded=0;entryX=0.25;entryY=0;entryDx=0;entryDy=0;" parent="1" target="-p_3wmiXi3rpDoXbvj0b-78" edge="1">
          <mxGeometry width="50" height="50" relative="1" as="geometry">
            <mxPoint x="320" y="612" as="sourcePoint" />
            <mxPoint x="320" y="585" as="targetPoint" />
          </mxGeometry>
        </mxCell>
        <mxCell id="-p_3wmiXi3rpDoXbvj0b-82" style="edgeStyle=orthogonalEdgeStyle;rounded=0;orthogonalLoop=1;jettySize=auto;html=1;entryX=-0.017;entryY=0.507;entryDx=0;entryDy=0;entryPerimeter=0;" parent="1" source="-p_3wmiXi3rpDoXbvj0b-65" target="-p_3wmiXi3rpDoXbvj0b-78" edge="1">
          <mxGeometry relative="1" as="geometry" />
        </mxCell>
        <mxCell id="-p_3wmiXi3rpDoXbvj0b-85" style="edgeStyle=orthogonalEdgeStyle;rounded=0;orthogonalLoop=1;jettySize=auto;html=1;entryX=-0.004;entryY=0.497;entryDx=0;entryDy=0;entryPerimeter=0;" parent="1" source="-p_3wmiXi3rpDoXbvj0b-78" target="-p_3wmiXi3rpDoXbvj0b-69" edge="1">
          <mxGeometry relative="1" as="geometry">
            <Array as="points">
              <mxPoint x="360" y="600" />
              <mxPoint x="360" y="545" />
            </Array>
          </mxGeometry>
        </mxCell>
        <mxCell id="oe5lDPZjmFiNpUjqi0ys-11" value="" style="edgeStyle=orthogonalEdgeStyle;rounded=0;orthogonalLoop=1;jettySize=auto;html=1;" parent="1" source="oe5lDPZjmFiNpUjqi0ys-1" target="oe5lDPZjmFiNpUjqi0ys-7" edge="1">
          <mxGeometry relative="1" as="geometry" />
        </mxCell>
        <mxCell id="oe5lDPZjmFiNpUjqi0ys-1" value="" style="rounded=0;whiteSpace=wrap;html=1;" parent="1" vertex="1">
          <mxGeometry x="530" y="587.5" width="40" height="25" as="geometry" />
        </mxCell>
        <mxCell id="oe5lDPZjmFiNpUjqi0ys-2" value="" style="ellipse;whiteSpace=wrap;html=1;aspect=fixed;" parent="1" vertex="1">
          <mxGeometry x="543.75" y="593.75" width="12.5" height="12.5" as="geometry" />
        </mxCell>
        <mxCell id="oe5lDPZjmFiNpUjqi0ys-3" value="" style="endArrow=none;html=1;rounded=0;entryX=0.25;entryY=0;entryDx=0;entryDy=0;" parent="1" target="oe5lDPZjmFiNpUjqi0ys-1" edge="1">
          <mxGeometry width="50" height="50" relative="1" as="geometry">
            <mxPoint x="540" y="612" as="sourcePoint" />
            <mxPoint x="540" y="585" as="targetPoint" />
          </mxGeometry>
        </mxCell>
        <mxCell id="oe5lDPZjmFiNpUjqi0ys-4" style="edgeStyle=orthogonalEdgeStyle;rounded=0;orthogonalLoop=1;jettySize=auto;html=1;entryX=0.5;entryY=-0.036;entryDx=0;entryDy=0;entryPerimeter=0;" parent="1" source="-p_3wmiXi3rpDoXbvj0b-69" target="oe5lDPZjmFiNpUjqi0ys-1" edge="1">
          <mxGeometry relative="1" as="geometry" />
        </mxCell>
        <mxCell id="oe5lDPZjmFiNpUjqi0ys-5" style="edgeStyle=orthogonalEdgeStyle;rounded=0;orthogonalLoop=1;jettySize=auto;html=1;entryX=0.502;entryY=1.001;entryDx=0;entryDy=0;entryPerimeter=0;" parent="1" source="-p_3wmiXi3rpDoXbvj0b-73" target="oe5lDPZjmFiNpUjqi0ys-1" edge="1">
          <mxGeometry relative="1" as="geometry">
            <Array as="points">
              <mxPoint x="550" y="655" />
              <mxPoint x="550" y="614" />
            </Array>
          </mxGeometry>
        </mxCell>
        <mxCell id="oe5lDPZjmFiNpUjqi0ys-6" style="edgeStyle=orthogonalEdgeStyle;rounded=0;orthogonalLoop=1;jettySize=auto;html=1;entryX=0.498;entryY=0.996;entryDx=0;entryDy=0;entryPerimeter=0;" parent="1" source="-p_3wmiXi3rpDoXbvj0b-78" target="oe5lDPZjmFiNpUjqi0ys-1" edge="1">
          <mxGeometry relative="1" as="geometry">
            <mxPoint x="530" y="630" as="targetPoint" />
            <Array as="points">
              <mxPoint x="330" y="730" />
              <mxPoint x="550" y="730" />
            </Array>
          </mxGeometry>
        </mxCell>
        <mxCell id="oe5lDPZjmFiNpUjqi0ys-19" style="edgeStyle=orthogonalEdgeStyle;rounded=0;orthogonalLoop=1;jettySize=auto;html=1;" parent="1" source="oe5lDPZjmFiNpUjqi0ys-7" edge="1">
          <mxGeometry relative="1" as="geometry">
            <mxPoint x="840" y="600" as="targetPoint" />
          </mxGeometry>
        </mxCell>
        <mxCell id="oe5lDPZjmFiNpUjqi0ys-7" value="Выбрать урок удовлетворяющий пользователя&lt;div&gt;&lt;br&gt;&lt;/div&gt;" style="rounded=0;whiteSpace=wrap;html=1;" parent="1" vertex="1">
          <mxGeometry x="610" y="565" width="120" height="70" as="geometry" />
        </mxCell>
        <mxCell id="oe5lDPZjmFiNpUjqi0ys-8" value="" style="endArrow=none;html=1;rounded=0;entryX=0.168;entryY=0.005;entryDx=0;entryDy=0;entryPerimeter=0;exitX=0;exitY=0.25;exitDx=0;exitDy=0;" parent="1" source="oe5lDPZjmFiNpUjqi0ys-7" target="oe5lDPZjmFiNpUjqi0ys-7" edge="1">
          <mxGeometry width="50" height="50" relative="1" as="geometry">
            <mxPoint x="610" y="585" as="sourcePoint" />
            <mxPoint x="660" y="535" as="targetPoint" />
          </mxGeometry>
        </mxCell>
        <mxCell id="oe5lDPZjmFiNpUjqi0ys-9" value="" style="endArrow=none;html=1;rounded=0;exitX=0;exitY=0.75;exitDx=0;exitDy=0;entryX=1;entryY=0.75;entryDx=0;entryDy=0;" parent="1" edge="1">
          <mxGeometry width="50" height="50" relative="1" as="geometry">
            <mxPoint x="610" y="614.5" as="sourcePoint" />
            <mxPoint x="730" y="614.5" as="targetPoint" />
          </mxGeometry>
        </mxCell>
        <mxCell id="oe5lDPZjmFiNpUjqi0ys-10" value="" style="endArrow=none;html=1;rounded=0;exitX=0.5;exitY=1;exitDx=0;exitDy=0;" parent="1" source="oe5lDPZjmFiNpUjqi0ys-7" edge="1">
          <mxGeometry width="50" height="50" relative="1" as="geometry">
            <mxPoint x="650" y="615" as="sourcePoint" />
            <mxPoint x="670" y="615" as="targetPoint" />
          </mxGeometry>
        </mxCell>
        <mxCell id="oe5lDPZjmFiNpUjqi0ys-21" value="Выбранный урок" style="text;html=1;align=center;verticalAlign=middle;whiteSpace=wrap;rounded=0;" parent="1" vertex="1">
          <mxGeometry x="740" y="565" width="100" height="30" as="geometry" />
        </mxCell>
        <mxCell id="oe5lDPZjmFiNpUjqi0ys-22" value="&lt;b&gt;J1&lt;/b&gt;" style="text;html=1;align=center;verticalAlign=middle;whiteSpace=wrap;rounded=0;" parent="1" vertex="1">
          <mxGeometry x="330" y="620" width="20" height="20" as="geometry" />
        </mxCell>
        <mxCell id="oe5lDPZjmFiNpUjqi0ys-23" value="&lt;b&gt;J2&lt;/b&gt;" style="text;html=1;align=center;verticalAlign=middle;whiteSpace=wrap;rounded=0;" parent="1" vertex="1">
          <mxGeometry x="560" y="620" width="20" height="20" as="geometry" />
        </mxCell>
        <mxCell id="oe5lDPZjmFiNpUjqi0ys-43" value="" style="edgeStyle=orthogonalEdgeStyle;rounded=0;orthogonalLoop=1;jettySize=auto;html=1;" parent="1" source="oe5lDPZjmFiNpUjqi0ys-24" target="oe5lDPZjmFiNpUjqi0ys-40" edge="1">
          <mxGeometry relative="1" as="geometry" />
        </mxCell>
        <mxCell id="oe5lDPZjmFiNpUjqi0ys-24" value="Запрос на подключение к уроку" style="rounded=0;whiteSpace=wrap;html=1;" parent="1" vertex="1">
          <mxGeometry x="160" y="964" width="120" height="70" as="geometry" />
        </mxCell>
        <mxCell id="oe5lDPZjmFiNpUjqi0ys-25" value="" style="endArrow=none;html=1;rounded=0;entryX=0.168;entryY=0.005;entryDx=0;entryDy=0;entryPerimeter=0;exitX=0;exitY=0.25;exitDx=0;exitDy=0;" parent="1" source="oe5lDPZjmFiNpUjqi0ys-24" target="oe5lDPZjmFiNpUjqi0ys-24" edge="1">
          <mxGeometry width="50" height="50" relative="1" as="geometry">
            <mxPoint x="160" y="984" as="sourcePoint" />
            <mxPoint x="210" y="934" as="targetPoint" />
          </mxGeometry>
        </mxCell>
        <mxCell id="oe5lDPZjmFiNpUjqi0ys-26" value="" style="endArrow=none;html=1;rounded=0;exitX=0;exitY=0.75;exitDx=0;exitDy=0;entryX=1;entryY=0.75;entryDx=0;entryDy=0;" parent="1" edge="1">
          <mxGeometry width="50" height="50" relative="1" as="geometry">
            <mxPoint x="160" y="1013.5" as="sourcePoint" />
            <mxPoint x="280" y="1013.5" as="targetPoint" />
          </mxGeometry>
        </mxCell>
        <mxCell id="oe5lDPZjmFiNpUjqi0ys-27" value="" style="endArrow=none;html=1;rounded=0;exitX=0.5;exitY=1;exitDx=0;exitDy=0;" parent="1" source="oe5lDPZjmFiNpUjqi0ys-24" edge="1">
          <mxGeometry width="50" height="50" relative="1" as="geometry">
            <mxPoint x="200" y="1014" as="sourcePoint" />
            <mxPoint x="220" y="1014" as="targetPoint" />
          </mxGeometry>
        </mxCell>
        <mxCell id="oe5lDPZjmFiNpUjqi0ys-28" value="Проверка свободных мест" style="rounded=0;whiteSpace=wrap;html=1;" parent="1" vertex="1">
          <mxGeometry x="430" y="819" width="120" height="70" as="geometry" />
        </mxCell>
        <mxCell id="oe5lDPZjmFiNpUjqi0ys-29" value="" style="endArrow=none;html=1;rounded=0;entryX=0.168;entryY=0.005;entryDx=0;entryDy=0;entryPerimeter=0;exitX=0;exitY=0.25;exitDx=0;exitDy=0;" parent="1" source="oe5lDPZjmFiNpUjqi0ys-28" target="oe5lDPZjmFiNpUjqi0ys-28" edge="1">
          <mxGeometry width="50" height="50" relative="1" as="geometry">
            <mxPoint x="430" y="839" as="sourcePoint" />
            <mxPoint x="480" y="789" as="targetPoint" />
          </mxGeometry>
        </mxCell>
        <mxCell id="oe5lDPZjmFiNpUjqi0ys-30" value="" style="endArrow=none;html=1;rounded=0;exitX=0;exitY=0.75;exitDx=0;exitDy=0;entryX=1;entryY=0.75;entryDx=0;entryDy=0;" parent="1" edge="1">
          <mxGeometry width="50" height="50" relative="1" as="geometry">
            <mxPoint x="430" y="868.5" as="sourcePoint" />
            <mxPoint x="550" y="868.5" as="targetPoint" />
          </mxGeometry>
        </mxCell>
        <mxCell id="oe5lDPZjmFiNpUjqi0ys-31" value="" style="endArrow=none;html=1;rounded=0;exitX=0.5;exitY=1;exitDx=0;exitDy=0;" parent="1" source="oe5lDPZjmFiNpUjqi0ys-28" edge="1">
          <mxGeometry width="50" height="50" relative="1" as="geometry">
            <mxPoint x="470" y="869" as="sourcePoint" />
            <mxPoint x="490" y="869" as="targetPoint" />
          </mxGeometry>
        </mxCell>
        <mxCell id="oe5lDPZjmFiNpUjqi0ys-32" value="Валидация пользователя" style="rounded=0;whiteSpace=wrap;html=1;" parent="1" vertex="1">
          <mxGeometry x="430" y="963" width="120" height="70" as="geometry" />
        </mxCell>
        <mxCell id="oe5lDPZjmFiNpUjqi0ys-33" value="" style="endArrow=none;html=1;rounded=0;entryX=0.168;entryY=0.005;entryDx=0;entryDy=0;entryPerimeter=0;exitX=0;exitY=0.25;exitDx=0;exitDy=0;" parent="1" source="oe5lDPZjmFiNpUjqi0ys-32" target="oe5lDPZjmFiNpUjqi0ys-32" edge="1">
          <mxGeometry width="50" height="50" relative="1" as="geometry">
            <mxPoint x="430" y="983" as="sourcePoint" />
            <mxPoint x="480" y="933" as="targetPoint" />
          </mxGeometry>
        </mxCell>
        <mxCell id="oe5lDPZjmFiNpUjqi0ys-34" value="" style="endArrow=none;html=1;rounded=0;exitX=0;exitY=0.75;exitDx=0;exitDy=0;entryX=1;entryY=0.75;entryDx=0;entryDy=0;" parent="1" edge="1">
          <mxGeometry width="50" height="50" relative="1" as="geometry">
            <mxPoint x="430" y="1012.5" as="sourcePoint" />
            <mxPoint x="550" y="1012.5" as="targetPoint" />
          </mxGeometry>
        </mxCell>
        <mxCell id="oe5lDPZjmFiNpUjqi0ys-35" value="" style="endArrow=none;html=1;rounded=0;exitX=0.5;exitY=1;exitDx=0;exitDy=0;" parent="1" source="oe5lDPZjmFiNpUjqi0ys-32" edge="1">
          <mxGeometry width="50" height="50" relative="1" as="geometry">
            <mxPoint x="470" y="1013" as="sourcePoint" />
            <mxPoint x="490" y="1013" as="targetPoint" />
          </mxGeometry>
        </mxCell>
        <mxCell id="oe5lDPZjmFiNpUjqi0ys-59" style="edgeStyle=orthogonalEdgeStyle;rounded=0;orthogonalLoop=1;jettySize=auto;html=1;entryX=0.5;entryY=1;entryDx=0;entryDy=0;entryPerimeter=0;" parent="1" source="oe5lDPZjmFiNpUjqi0ys-36" target="oe5lDPZjmFiNpUjqi0ys-53" edge="1">
          <mxGeometry relative="1" as="geometry">
            <mxPoint x="620" y="1009" as="targetPoint" />
          </mxGeometry>
        </mxCell>
        <mxCell id="oe5lDPZjmFiNpUjqi0ys-36" value="&lt;font style=&quot;font-size: 11px;&quot;&gt;Проверка на запланированность урока&lt;/font&gt;&lt;div style=&quot;font-size: 11px;&quot;&gt;&lt;br&gt;&lt;/div&gt;" style="rounded=0;whiteSpace=wrap;html=1;" parent="1" vertex="1">
          <mxGeometry x="430" y="1099" width="120" height="70" as="geometry" />
        </mxCell>
        <mxCell id="oe5lDPZjmFiNpUjqi0ys-37" value="" style="endArrow=none;html=1;rounded=0;entryX=0.168;entryY=0.005;entryDx=0;entryDy=0;entryPerimeter=0;exitX=0;exitY=0.25;exitDx=0;exitDy=0;" parent="1" source="oe5lDPZjmFiNpUjqi0ys-36" target="oe5lDPZjmFiNpUjqi0ys-36" edge="1">
          <mxGeometry width="50" height="50" relative="1" as="geometry">
            <mxPoint x="430" y="1119" as="sourcePoint" />
            <mxPoint x="480" y="1069" as="targetPoint" />
          </mxGeometry>
        </mxCell>
        <mxCell id="oe5lDPZjmFiNpUjqi0ys-38" value="" style="endArrow=none;html=1;rounded=0;exitX=0;exitY=0.75;exitDx=0;exitDy=0;entryX=1;entryY=0.75;entryDx=0;entryDy=0;" parent="1" edge="1">
          <mxGeometry width="50" height="50" relative="1" as="geometry">
            <mxPoint x="430" y="1148.5" as="sourcePoint" />
            <mxPoint x="550" y="1148.5" as="targetPoint" />
          </mxGeometry>
        </mxCell>
        <mxCell id="oe5lDPZjmFiNpUjqi0ys-39" value="" style="endArrow=none;html=1;rounded=0;exitX=0.5;exitY=1;exitDx=0;exitDy=0;" parent="1" source="oe5lDPZjmFiNpUjqi0ys-36" edge="1">
          <mxGeometry width="50" height="50" relative="1" as="geometry">
            <mxPoint x="470" y="1149" as="sourcePoint" />
            <mxPoint x="490" y="1149" as="targetPoint" />
          </mxGeometry>
        </mxCell>
        <mxCell id="oe5lDPZjmFiNpUjqi0ys-45" style="edgeStyle=orthogonalEdgeStyle;rounded=0;orthogonalLoop=1;jettySize=auto;html=1;entryX=-0.002;entryY=0.52;entryDx=0;entryDy=0;entryPerimeter=0;" parent="1" source="oe5lDPZjmFiNpUjqi0ys-40" target="oe5lDPZjmFiNpUjqi0ys-32" edge="1">
          <mxGeometry relative="1" as="geometry">
            <mxPoint x="390" y="999" as="targetPoint" />
          </mxGeometry>
        </mxCell>
        <mxCell id="oe5lDPZjmFiNpUjqi0ys-40" value="&lt;b&gt;&amp;amp;&lt;/b&gt;" style="rounded=0;whiteSpace=wrap;html=1;" parent="1" vertex="1">
          <mxGeometry x="320" y="986.5" width="40" height="25" as="geometry" />
        </mxCell>
        <mxCell id="oe5lDPZjmFiNpUjqi0ys-42" value="" style="endArrow=none;html=1;rounded=0;entryX=0.25;entryY=0;entryDx=0;entryDy=0;" parent="1" target="oe5lDPZjmFiNpUjqi0ys-40" edge="1">
          <mxGeometry width="50" height="50" relative="1" as="geometry">
            <mxPoint x="330" y="1011" as="sourcePoint" />
            <mxPoint x="330" y="984" as="targetPoint" />
          </mxGeometry>
        </mxCell>
        <mxCell id="oe5lDPZjmFiNpUjqi0ys-44" style="edgeStyle=orthogonalEdgeStyle;rounded=0;orthogonalLoop=1;jettySize=auto;html=1;entryX=-0.004;entryY=0.496;entryDx=0;entryDy=0;entryPerimeter=0;" parent="1" source="oe5lDPZjmFiNpUjqi0ys-40" target="oe5lDPZjmFiNpUjqi0ys-28" edge="1">
          <mxGeometry relative="1" as="geometry">
            <Array as="points">
              <mxPoint x="371" y="999" />
              <mxPoint x="371" y="854" />
            </Array>
          </mxGeometry>
        </mxCell>
        <mxCell id="oe5lDPZjmFiNpUjqi0ys-46" style="edgeStyle=orthogonalEdgeStyle;rounded=0;orthogonalLoop=1;jettySize=auto;html=1;entryX=-0.004;entryY=0.561;entryDx=0;entryDy=0;entryPerimeter=0;" parent="1" source="oe5lDPZjmFiNpUjqi0ys-40" target="oe5lDPZjmFiNpUjqi0ys-36" edge="1">
          <mxGeometry relative="1" as="geometry">
            <Array as="points">
              <mxPoint x="371" y="999" />
              <mxPoint x="371" y="1138" />
            </Array>
          </mxGeometry>
        </mxCell>
        <mxCell id="oe5lDPZjmFiNpUjqi0ys-47" value="&lt;b&gt;J3&lt;/b&gt;" style="text;html=1;align=center;verticalAlign=middle;whiteSpace=wrap;rounded=0;" parent="1" vertex="1">
          <mxGeometry x="340" y="1019" width="20" height="20" as="geometry" />
        </mxCell>
        <mxCell id="oe5lDPZjmFiNpUjqi0ys-49" value="Подключение к уроку" style="rounded=0;whiteSpace=wrap;html=1;" parent="1" vertex="1">
          <mxGeometry x="680" y="959" width="120" height="70" as="geometry" />
        </mxCell>
        <mxCell id="oe5lDPZjmFiNpUjqi0ys-50" value="" style="endArrow=none;html=1;rounded=0;entryX=0.168;entryY=0.005;entryDx=0;entryDy=0;entryPerimeter=0;exitX=0;exitY=0.25;exitDx=0;exitDy=0;" parent="1" source="oe5lDPZjmFiNpUjqi0ys-49" target="oe5lDPZjmFiNpUjqi0ys-49" edge="1">
          <mxGeometry width="50" height="50" relative="1" as="geometry">
            <mxPoint x="680" y="984" as="sourcePoint" />
            <mxPoint x="730" y="934" as="targetPoint" />
          </mxGeometry>
        </mxCell>
        <mxCell id="oe5lDPZjmFiNpUjqi0ys-51" value="" style="endArrow=none;html=1;rounded=0;exitX=0;exitY=0.75;exitDx=0;exitDy=0;entryX=1;entryY=0.75;entryDx=0;entryDy=0;" parent="1" edge="1">
          <mxGeometry width="50" height="50" relative="1" as="geometry">
            <mxPoint x="680" y="1013.5" as="sourcePoint" />
            <mxPoint x="800" y="1013.5" as="targetPoint" />
          </mxGeometry>
        </mxCell>
        <mxCell id="oe5lDPZjmFiNpUjqi0ys-52" value="" style="endArrow=none;html=1;rounded=0;exitX=0.5;exitY=1;exitDx=0;exitDy=0;" parent="1" source="oe5lDPZjmFiNpUjqi0ys-49" edge="1">
          <mxGeometry width="50" height="50" relative="1" as="geometry">
            <mxPoint x="720" y="1014" as="sourcePoint" />
            <mxPoint x="740" y="1014" as="targetPoint" />
          </mxGeometry>
        </mxCell>
        <mxCell id="oe5lDPZjmFiNpUjqi0ys-57" value="" style="edgeStyle=orthogonalEdgeStyle;rounded=0;orthogonalLoop=1;jettySize=auto;html=1;" parent="1" source="oe5lDPZjmFiNpUjqi0ys-53" target="oe5lDPZjmFiNpUjqi0ys-49" edge="1">
          <mxGeometry relative="1" as="geometry" />
        </mxCell>
        <mxCell id="oe5lDPZjmFiNpUjqi0ys-53" value="&lt;b&gt;&amp;amp;&lt;/b&gt;" style="rounded=0;whiteSpace=wrap;html=1;" parent="1" vertex="1">
          <mxGeometry x="600" y="981.5" width="40" height="25" as="geometry" />
        </mxCell>
        <mxCell id="oe5lDPZjmFiNpUjqi0ys-54" value="" style="endArrow=none;html=1;rounded=0;entryX=0.25;entryY=0;entryDx=0;entryDy=0;" parent="1" target="oe5lDPZjmFiNpUjqi0ys-53" edge="1">
          <mxGeometry width="50" height="50" relative="1" as="geometry">
            <mxPoint x="610" y="1006" as="sourcePoint" />
            <mxPoint x="610" y="979" as="targetPoint" />
          </mxGeometry>
        </mxCell>
        <mxCell id="oe5lDPZjmFiNpUjqi0ys-55" value="&lt;b&gt;J4&lt;/b&gt;" style="text;html=1;align=center;verticalAlign=middle;whiteSpace=wrap;rounded=0;" parent="1" vertex="1">
          <mxGeometry x="620" y="1014" width="20" height="20" as="geometry" />
        </mxCell>
        <mxCell id="oe5lDPZjmFiNpUjqi0ys-56" style="edgeStyle=orthogonalEdgeStyle;rounded=0;orthogonalLoop=1;jettySize=auto;html=1;entryX=-0.003;entryY=0.66;entryDx=0;entryDy=0;entryPerimeter=0;" parent="1" source="oe5lDPZjmFiNpUjqi0ys-32" target="oe5lDPZjmFiNpUjqi0ys-53" edge="1">
          <mxGeometry relative="1" as="geometry" />
        </mxCell>
        <mxCell id="oe5lDPZjmFiNpUjqi0ys-58" style="edgeStyle=orthogonalEdgeStyle;rounded=0;orthogonalLoop=1;jettySize=auto;html=1;entryX=0.497;entryY=-0.005;entryDx=0;entryDy=0;entryPerimeter=0;" parent="1" source="oe5lDPZjmFiNpUjqi0ys-28" target="oe5lDPZjmFiNpUjqi0ys-53" edge="1">
          <mxGeometry relative="1" as="geometry" />
        </mxCell>
        <mxCell id="oe5lDPZjmFiNpUjqi0ys-65" style="edgeStyle=orthogonalEdgeStyle;rounded=0;orthogonalLoop=1;jettySize=auto;html=1;" parent="1" source="oe5lDPZjmFiNpUjqi0ys-60" edge="1">
          <mxGeometry relative="1" as="geometry">
            <mxPoint x="1600" y="745" as="targetPoint" />
          </mxGeometry>
        </mxCell>
        <mxCell id="oe5lDPZjmFiNpUjqi0ys-60" value="Проведение урока" style="rounded=0;whiteSpace=wrap;html=1;" parent="1" vertex="1">
          <mxGeometry x="1380" y="710" width="120" height="70" as="geometry" />
        </mxCell>
        <mxCell id="oe5lDPZjmFiNpUjqi0ys-61" value="" style="endArrow=none;html=1;rounded=0;entryX=0.168;entryY=0.005;entryDx=0;entryDy=0;entryPerimeter=0;exitX=0;exitY=0.25;exitDx=0;exitDy=0;" parent="1" source="oe5lDPZjmFiNpUjqi0ys-60" target="oe5lDPZjmFiNpUjqi0ys-60" edge="1">
          <mxGeometry width="50" height="50" relative="1" as="geometry">
            <mxPoint x="1380" y="735" as="sourcePoint" />
            <mxPoint x="1430" y="685" as="targetPoint" />
          </mxGeometry>
        </mxCell>
        <mxCell id="oe5lDPZjmFiNpUjqi0ys-62" value="" style="endArrow=none;html=1;rounded=0;exitX=0;exitY=0.75;exitDx=0;exitDy=0;entryX=1;entryY=0.75;entryDx=0;entryDy=0;" parent="1" edge="1">
          <mxGeometry width="50" height="50" relative="1" as="geometry">
            <mxPoint x="1380" y="764.5" as="sourcePoint" />
            <mxPoint x="1500" y="764.5" as="targetPoint" />
          </mxGeometry>
        </mxCell>
        <mxCell id="oe5lDPZjmFiNpUjqi0ys-63" value="" style="endArrow=none;html=1;rounded=0;exitX=0.5;exitY=1;exitDx=0;exitDy=0;" parent="1" source="oe5lDPZjmFiNpUjqi0ys-60" edge="1">
          <mxGeometry width="50" height="50" relative="1" as="geometry">
            <mxPoint x="1420" y="765" as="sourcePoint" />
            <mxPoint x="1440" y="765" as="targetPoint" />
          </mxGeometry>
        </mxCell>
        <mxCell id="oe5lDPZjmFiNpUjqi0ys-66" value="Проведенный урок" style="text;html=1;align=center;verticalAlign=middle;whiteSpace=wrap;rounded=0;" parent="1" vertex="1">
          <mxGeometry x="1510" y="714" width="110" height="30" as="geometry" />
        </mxCell>
        <mxCell id="TgTTo747artbuSCOzgtK-5" value="" style="edgeStyle=orthogonalEdgeStyle;rounded=0;orthogonalLoop=1;jettySize=auto;html=1;dashed=1;" edge="1" parent="1" source="TgTTo747artbuSCOzgtK-1" target="-p_3wmiXi3rpDoXbvj0b-65">
          <mxGeometry relative="1" as="geometry" />
        </mxCell>
        <mxCell id="TgTTo747artbuSCOzgtK-1" value="Пользователь" style="rounded=0;whiteSpace=wrap;html=1;" vertex="1" parent="1">
          <mxGeometry x="160" y="440" width="120" height="70" as="geometry" />
        </mxCell>
        <mxCell id="TgTTo747artbuSCOzgtK-2" value="" style="endArrow=none;html=1;rounded=0;entryX=0.168;entryY=0.005;entryDx=0;entryDy=0;entryPerimeter=0;exitX=0;exitY=0.25;exitDx=0;exitDy=0;" edge="1" parent="1" source="TgTTo747artbuSCOzgtK-1" target="TgTTo747artbuSCOzgtK-1">
          <mxGeometry width="50" height="50" relative="1" as="geometry">
            <mxPoint x="160" y="460" as="sourcePoint" />
            <mxPoint x="210" y="410" as="targetPoint" />
          </mxGeometry>
        </mxCell>
        <mxCell id="TgTTo747artbuSCOzgtK-3" value="" style="endArrow=none;html=1;rounded=0;exitX=0;exitY=0.75;exitDx=0;exitDy=0;entryX=1;entryY=0.75;entryDx=0;entryDy=0;" edge="1" parent="1">
          <mxGeometry width="50" height="50" relative="1" as="geometry">
            <mxPoint x="160" y="489.5" as="sourcePoint" />
            <mxPoint x="280" y="489.5" as="targetPoint" />
          </mxGeometry>
        </mxCell>
        <mxCell id="TgTTo747artbuSCOzgtK-4" value="" style="endArrow=none;html=1;rounded=0;exitX=0.5;exitY=1;exitDx=0;exitDy=0;" edge="1" parent="1" source="TgTTo747artbuSCOzgtK-1">
          <mxGeometry width="50" height="50" relative="1" as="geometry">
            <mxPoint x="200" y="490" as="sourcePoint" />
            <mxPoint x="220" y="490" as="targetPoint" />
          </mxGeometry>
        </mxCell>
        <mxCell id="TgTTo747artbuSCOzgtK-7" value="Поиск по критериям" style="rounded=0;whiteSpace=wrap;html=1;" vertex="1" parent="1">
          <mxGeometry x="380" y="400" width="120" height="70" as="geometry" />
        </mxCell>
        <mxCell id="TgTTo747artbuSCOzgtK-8" value="" style="endArrow=none;html=1;rounded=0;entryX=0.168;entryY=0.005;entryDx=0;entryDy=0;entryPerimeter=0;exitX=0;exitY=0.25;exitDx=0;exitDy=0;" edge="1" parent="1" source="TgTTo747artbuSCOzgtK-7" target="TgTTo747artbuSCOzgtK-7">
          <mxGeometry width="50" height="50" relative="1" as="geometry">
            <mxPoint x="380" y="420" as="sourcePoint" />
            <mxPoint x="430" y="370" as="targetPoint" />
          </mxGeometry>
        </mxCell>
        <mxCell id="TgTTo747artbuSCOzgtK-9" value="" style="endArrow=none;html=1;rounded=0;exitX=0;exitY=0.75;exitDx=0;exitDy=0;entryX=1;entryY=0.75;entryDx=0;entryDy=0;" edge="1" parent="1">
          <mxGeometry width="50" height="50" relative="1" as="geometry">
            <mxPoint x="380" y="449.5" as="sourcePoint" />
            <mxPoint x="500" y="449.5" as="targetPoint" />
          </mxGeometry>
        </mxCell>
        <mxCell id="TgTTo747artbuSCOzgtK-10" value="" style="endArrow=none;html=1;rounded=0;exitX=0.5;exitY=1;exitDx=0;exitDy=0;" edge="1" parent="1" source="TgTTo747artbuSCOzgtK-7">
          <mxGeometry width="50" height="50" relative="1" as="geometry">
            <mxPoint x="420" y="450" as="sourcePoint" />
            <mxPoint x="440" y="450" as="targetPoint" />
          </mxGeometry>
        </mxCell>
        <mxCell id="TgTTo747artbuSCOzgtK-11" style="edgeStyle=orthogonalEdgeStyle;rounded=0;orthogonalLoop=1;jettySize=auto;html=1;entryX=-0.001;entryY=0.463;entryDx=0;entryDy=0;entryPerimeter=0;" edge="1" parent="1" source="-p_3wmiXi3rpDoXbvj0b-78" target="TgTTo747artbuSCOzgtK-7">
          <mxGeometry relative="1" as="geometry">
            <Array as="points">
              <mxPoint x="360" y="600" />
              <mxPoint x="360" y="432" />
            </Array>
          </mxGeometry>
        </mxCell>
        <mxCell id="TgTTo747artbuSCOzgtK-12" style="edgeStyle=orthogonalEdgeStyle;rounded=0;orthogonalLoop=1;jettySize=auto;html=1;entryX=0.504;entryY=-0.054;entryDx=0;entryDy=0;entryPerimeter=0;" edge="1" parent="1" source="TgTTo747artbuSCOzgtK-7" target="oe5lDPZjmFiNpUjqi0ys-1">
          <mxGeometry relative="1" as="geometry" />
        </mxCell>
        <mxCell id="TgTTo747artbuSCOzgtK-17" value="" style="edgeStyle=orthogonalEdgeStyle;rounded=0;orthogonalLoop=1;jettySize=auto;html=1;dashed=1;" edge="1" parent="1" source="TgTTo747artbuSCOzgtK-13" target="oe5lDPZjmFiNpUjqi0ys-24">
          <mxGeometry relative="1" as="geometry" />
        </mxCell>
        <mxCell id="TgTTo747artbuSCOzgtK-13" value="Пользователь" style="rounded=0;whiteSpace=wrap;html=1;" vertex="1" parent="1">
          <mxGeometry x="160" y="850" width="120" height="70" as="geometry" />
        </mxCell>
        <mxCell id="TgTTo747artbuSCOzgtK-14" value="" style="endArrow=none;html=1;rounded=0;entryX=0.168;entryY=0.005;entryDx=0;entryDy=0;entryPerimeter=0;exitX=0;exitY=0.25;exitDx=0;exitDy=0;" edge="1" parent="1" source="TgTTo747artbuSCOzgtK-13" target="TgTTo747artbuSCOzgtK-13">
          <mxGeometry width="50" height="50" relative="1" as="geometry">
            <mxPoint x="160" y="870" as="sourcePoint" />
            <mxPoint x="210" y="820" as="targetPoint" />
          </mxGeometry>
        </mxCell>
        <mxCell id="TgTTo747artbuSCOzgtK-15" value="" style="endArrow=none;html=1;rounded=0;exitX=0;exitY=0.75;exitDx=0;exitDy=0;entryX=1;entryY=0.75;entryDx=0;entryDy=0;" edge="1" parent="1">
          <mxGeometry width="50" height="50" relative="1" as="geometry">
            <mxPoint x="160" y="899.5" as="sourcePoint" />
            <mxPoint x="280" y="899.5" as="targetPoint" />
          </mxGeometry>
        </mxCell>
        <mxCell id="TgTTo747artbuSCOzgtK-16" value="" style="endArrow=none;html=1;rounded=0;exitX=0.5;exitY=1;exitDx=0;exitDy=0;" edge="1" parent="1" source="TgTTo747artbuSCOzgtK-13">
          <mxGeometry width="50" height="50" relative="1" as="geometry">
            <mxPoint x="200" y="900" as="sourcePoint" />
            <mxPoint x="220" y="900" as="targetPoint" />
          </mxGeometry>
        </mxCell>
        <mxCell id="TgTTo747artbuSCOzgtK-18" value="Пользователь" style="rounded=0;whiteSpace=wrap;html=1;" vertex="1" parent="1">
          <mxGeometry x="960" y="600" width="120" height="70" as="geometry" />
        </mxCell>
        <mxCell id="TgTTo747artbuSCOzgtK-19" value="" style="endArrow=none;html=1;rounded=0;entryX=0.168;entryY=0.005;entryDx=0;entryDy=0;entryPerimeter=0;exitX=0;exitY=0.25;exitDx=0;exitDy=0;" edge="1" parent="1" source="TgTTo747artbuSCOzgtK-18" target="TgTTo747artbuSCOzgtK-18">
          <mxGeometry width="50" height="50" relative="1" as="geometry">
            <mxPoint x="960" y="625" as="sourcePoint" />
            <mxPoint x="1010" y="575" as="targetPoint" />
          </mxGeometry>
        </mxCell>
        <mxCell id="TgTTo747artbuSCOzgtK-20" value="" style="endArrow=none;html=1;rounded=0;exitX=0;exitY=0.75;exitDx=0;exitDy=0;entryX=1;entryY=0.75;entryDx=0;entryDy=0;" edge="1" parent="1">
          <mxGeometry width="50" height="50" relative="1" as="geometry">
            <mxPoint x="960" y="654.5" as="sourcePoint" />
            <mxPoint x="1080" y="654.5" as="targetPoint" />
          </mxGeometry>
        </mxCell>
        <mxCell id="TgTTo747artbuSCOzgtK-21" value="" style="endArrow=none;html=1;rounded=0;exitX=0.5;exitY=1;exitDx=0;exitDy=0;" edge="1" parent="1" source="TgTTo747artbuSCOzgtK-18">
          <mxGeometry width="50" height="50" relative="1" as="geometry">
            <mxPoint x="1000" y="655" as="sourcePoint" />
            <mxPoint x="1020" y="655" as="targetPoint" />
          </mxGeometry>
        </mxCell>
        <mxCell id="TgTTo747artbuSCOzgtK-22" value="Инициация звонка через платформу" style="rounded=0;whiteSpace=wrap;html=1;" vertex="1" parent="1">
          <mxGeometry x="960" y="710" width="120" height="70" as="geometry" />
        </mxCell>
        <mxCell id="TgTTo747artbuSCOzgtK-23" value="" style="endArrow=none;html=1;rounded=0;entryX=0.168;entryY=0.005;entryDx=0;entryDy=0;entryPerimeter=0;exitX=0;exitY=0.25;exitDx=0;exitDy=0;" edge="1" parent="1" source="TgTTo747artbuSCOzgtK-22" target="TgTTo747artbuSCOzgtK-22">
          <mxGeometry width="50" height="50" relative="1" as="geometry">
            <mxPoint x="960" y="735" as="sourcePoint" />
            <mxPoint x="1010" y="685" as="targetPoint" />
          </mxGeometry>
        </mxCell>
        <mxCell id="TgTTo747artbuSCOzgtK-24" value="" style="endArrow=none;html=1;rounded=0;exitX=0;exitY=0.75;exitDx=0;exitDy=0;entryX=1;entryY=0.75;entryDx=0;entryDy=0;" edge="1" parent="1">
          <mxGeometry width="50" height="50" relative="1" as="geometry">
            <mxPoint x="960" y="764.5" as="sourcePoint" />
            <mxPoint x="1080" y="764.5" as="targetPoint" />
          </mxGeometry>
        </mxCell>
        <mxCell id="TgTTo747artbuSCOzgtK-25" value="" style="endArrow=none;html=1;rounded=0;exitX=0.5;exitY=1;exitDx=0;exitDy=0;" edge="1" parent="1" source="TgTTo747artbuSCOzgtK-22">
          <mxGeometry width="50" height="50" relative="1" as="geometry">
            <mxPoint x="1000" y="765" as="sourcePoint" />
            <mxPoint x="1020" y="765" as="targetPoint" />
          </mxGeometry>
        </mxCell>
        <mxCell id="TgTTo747artbuSCOzgtK-50" value="" style="edgeStyle=orthogonalEdgeStyle;rounded=0;orthogonalLoop=1;jettySize=auto;html=1;dashed=1;" edge="1" parent="1" source="TgTTo747artbuSCOzgtK-26" target="TgTTo747artbuSCOzgtK-22">
          <mxGeometry relative="1" as="geometry" />
        </mxCell>
        <mxCell id="TgTTo747artbuSCOzgtK-26" value="Свободный запланированный урок&lt;div&gt;&lt;br&gt;&lt;/div&gt;" style="rounded=0;whiteSpace=wrap;html=1;" vertex="1" parent="1">
          <mxGeometry x="960" y="819" width="120" height="70" as="geometry" />
        </mxCell>
        <mxCell id="TgTTo747artbuSCOzgtK-27" value="" style="endArrow=none;html=1;rounded=0;entryX=0.168;entryY=0.005;entryDx=0;entryDy=0;entryPerimeter=0;exitX=0;exitY=0.25;exitDx=0;exitDy=0;" edge="1" parent="1" source="TgTTo747artbuSCOzgtK-26" target="TgTTo747artbuSCOzgtK-26">
          <mxGeometry width="50" height="50" relative="1" as="geometry">
            <mxPoint x="960" y="844" as="sourcePoint" />
            <mxPoint x="1010" y="794" as="targetPoint" />
          </mxGeometry>
        </mxCell>
        <mxCell id="TgTTo747artbuSCOzgtK-28" value="" style="endArrow=none;html=1;rounded=0;exitX=0;exitY=0.75;exitDx=0;exitDy=0;entryX=1;entryY=0.75;entryDx=0;entryDy=0;" edge="1" parent="1">
          <mxGeometry width="50" height="50" relative="1" as="geometry">
            <mxPoint x="960" y="873.5" as="sourcePoint" />
            <mxPoint x="1080" y="873.5" as="targetPoint" />
          </mxGeometry>
        </mxCell>
        <mxCell id="TgTTo747artbuSCOzgtK-29" value="" style="endArrow=none;html=1;rounded=0;exitX=0.5;exitY=1;exitDx=0;exitDy=0;" edge="1" parent="1" source="TgTTo747artbuSCOzgtK-26">
          <mxGeometry width="50" height="50" relative="1" as="geometry">
            <mxPoint x="1000" y="874" as="sourcePoint" />
            <mxPoint x="1020" y="874" as="targetPoint" />
          </mxGeometry>
        </mxCell>
        <mxCell id="TgTTo747artbuSCOzgtK-31" value="Демонстрация материалов на экране" style="rounded=0;whiteSpace=wrap;html=1;" vertex="1" parent="1">
          <mxGeometry x="1170" y="600" width="120" height="70" as="geometry" />
        </mxCell>
        <mxCell id="TgTTo747artbuSCOzgtK-32" value="" style="endArrow=none;html=1;rounded=0;entryX=0.168;entryY=0.005;entryDx=0;entryDy=0;entryPerimeter=0;exitX=0;exitY=0.25;exitDx=0;exitDy=0;" edge="1" parent="1" source="TgTTo747artbuSCOzgtK-31" target="TgTTo747artbuSCOzgtK-31">
          <mxGeometry width="50" height="50" relative="1" as="geometry">
            <mxPoint x="1170" y="625" as="sourcePoint" />
            <mxPoint x="1220" y="575" as="targetPoint" />
          </mxGeometry>
        </mxCell>
        <mxCell id="TgTTo747artbuSCOzgtK-33" value="" style="endArrow=none;html=1;rounded=0;exitX=0;exitY=0.75;exitDx=0;exitDy=0;entryX=1;entryY=0.75;entryDx=0;entryDy=0;" edge="1" parent="1">
          <mxGeometry width="50" height="50" relative="1" as="geometry">
            <mxPoint x="1170" y="654.5" as="sourcePoint" />
            <mxPoint x="1290" y="654.5" as="targetPoint" />
          </mxGeometry>
        </mxCell>
        <mxCell id="TgTTo747artbuSCOzgtK-34" value="" style="endArrow=none;html=1;rounded=0;exitX=0.5;exitY=1;exitDx=0;exitDy=0;" edge="1" parent="1" source="TgTTo747artbuSCOzgtK-31">
          <mxGeometry width="50" height="50" relative="1" as="geometry">
            <mxPoint x="1210" y="655" as="sourcePoint" />
            <mxPoint x="1230" y="655" as="targetPoint" />
          </mxGeometry>
        </mxCell>
        <mxCell id="TgTTo747artbuSCOzgtK-35" value="Обсуждение в чате или голосом" style="rounded=0;whiteSpace=wrap;html=1;" vertex="1" parent="1">
          <mxGeometry x="1170" y="710" width="120" height="70" as="geometry" />
        </mxCell>
        <mxCell id="TgTTo747artbuSCOzgtK-36" value="" style="endArrow=none;html=1;rounded=0;entryX=0.168;entryY=0.005;entryDx=0;entryDy=0;entryPerimeter=0;exitX=0;exitY=0.25;exitDx=0;exitDy=0;" edge="1" parent="1" source="TgTTo747artbuSCOzgtK-35" target="TgTTo747artbuSCOzgtK-35">
          <mxGeometry width="50" height="50" relative="1" as="geometry">
            <mxPoint x="1170" y="735" as="sourcePoint" />
            <mxPoint x="1220" y="685" as="targetPoint" />
          </mxGeometry>
        </mxCell>
        <mxCell id="TgTTo747artbuSCOzgtK-37" value="" style="endArrow=none;html=1;rounded=0;exitX=0;exitY=0.75;exitDx=0;exitDy=0;entryX=1;entryY=0.75;entryDx=0;entryDy=0;" edge="1" parent="1">
          <mxGeometry width="50" height="50" relative="1" as="geometry">
            <mxPoint x="1170" y="764.5" as="sourcePoint" />
            <mxPoint x="1290" y="764.5" as="targetPoint" />
          </mxGeometry>
        </mxCell>
        <mxCell id="TgTTo747artbuSCOzgtK-38" value="" style="endArrow=none;html=1;rounded=0;exitX=0.5;exitY=1;exitDx=0;exitDy=0;" edge="1" parent="1" source="TgTTo747artbuSCOzgtK-35">
          <mxGeometry width="50" height="50" relative="1" as="geometry">
            <mxPoint x="1210" y="765" as="sourcePoint" />
            <mxPoint x="1230" y="765" as="targetPoint" />
          </mxGeometry>
        </mxCell>
        <mxCell id="TgTTo747artbuSCOzgtK-39" value="Проведение опросов или квизов" style="rounded=0;whiteSpace=wrap;html=1;" vertex="1" parent="1">
          <mxGeometry x="1170" y="819" width="120" height="70" as="geometry" />
        </mxCell>
        <mxCell id="TgTTo747artbuSCOzgtK-40" value="" style="endArrow=none;html=1;rounded=0;entryX=0.168;entryY=0.005;entryDx=0;entryDy=0;entryPerimeter=0;exitX=0;exitY=0.25;exitDx=0;exitDy=0;" edge="1" parent="1" source="TgTTo747artbuSCOzgtK-39" target="TgTTo747artbuSCOzgtK-39">
          <mxGeometry width="50" height="50" relative="1" as="geometry">
            <mxPoint x="1170" y="844" as="sourcePoint" />
            <mxPoint x="1220" y="794" as="targetPoint" />
          </mxGeometry>
        </mxCell>
        <mxCell id="TgTTo747artbuSCOzgtK-41" value="" style="endArrow=none;html=1;rounded=0;exitX=0;exitY=0.75;exitDx=0;exitDy=0;entryX=1;entryY=0.75;entryDx=0;entryDy=0;" edge="1" parent="1">
          <mxGeometry width="50" height="50" relative="1" as="geometry">
            <mxPoint x="1170" y="873.5" as="sourcePoint" />
            <mxPoint x="1290" y="873.5" as="targetPoint" />
          </mxGeometry>
        </mxCell>
        <mxCell id="TgTTo747artbuSCOzgtK-42" value="" style="endArrow=none;html=1;rounded=0;exitX=0.5;exitY=1;exitDx=0;exitDy=0;" edge="1" parent="1" source="TgTTo747artbuSCOzgtK-39">
          <mxGeometry width="50" height="50" relative="1" as="geometry">
            <mxPoint x="1210" y="874" as="sourcePoint" />
            <mxPoint x="1230" y="874" as="targetPoint" />
          </mxGeometry>
        </mxCell>
        <mxCell id="TgTTo747artbuSCOzgtK-43" value="" style="rounded=0;whiteSpace=wrap;html=1;" vertex="1" parent="1">
          <mxGeometry x="1100" y="732.5" width="40" height="25" as="geometry" />
        </mxCell>
        <mxCell id="TgTTo747artbuSCOzgtK-44" value="" style="ellipse;whiteSpace=wrap;html=1;aspect=fixed;" vertex="1" parent="1">
          <mxGeometry x="1113.75" y="738.75" width="12.5" height="12.5" as="geometry" />
        </mxCell>
        <mxCell id="TgTTo747artbuSCOzgtK-45" value="" style="endArrow=none;html=1;rounded=0;entryX=0.25;entryY=0;entryDx=0;entryDy=0;" edge="1" parent="1" target="TgTTo747artbuSCOzgtK-43">
          <mxGeometry width="50" height="50" relative="1" as="geometry">
            <mxPoint x="1110" y="757" as="sourcePoint" />
            <mxPoint x="1110" y="730" as="targetPoint" />
          </mxGeometry>
        </mxCell>
        <mxCell id="TgTTo747artbuSCOzgtK-59" value="" style="edgeStyle=orthogonalEdgeStyle;rounded=0;orthogonalLoop=1;jettySize=auto;html=1;" edge="1" parent="1" source="TgTTo747artbuSCOzgtK-46" target="oe5lDPZjmFiNpUjqi0ys-60">
          <mxGeometry relative="1" as="geometry" />
        </mxCell>
        <mxCell id="TgTTo747artbuSCOzgtK-46" value="" style="rounded=0;whiteSpace=wrap;html=1;" vertex="1" parent="1">
          <mxGeometry x="1320" y="732.5" width="40" height="25" as="geometry" />
        </mxCell>
        <mxCell id="TgTTo747artbuSCOzgtK-47" value="" style="ellipse;whiteSpace=wrap;html=1;aspect=fixed;" vertex="1" parent="1">
          <mxGeometry x="1333.75" y="738.75" width="12.5" height="12.5" as="geometry" />
        </mxCell>
        <mxCell id="TgTTo747artbuSCOzgtK-48" value="" style="endArrow=none;html=1;rounded=0;entryX=0.25;entryY=0;entryDx=0;entryDy=0;" edge="1" parent="1" target="TgTTo747artbuSCOzgtK-46">
          <mxGeometry width="50" height="50" relative="1" as="geometry">
            <mxPoint x="1330" y="757" as="sourcePoint" />
            <mxPoint x="1330" y="730" as="targetPoint" />
          </mxGeometry>
        </mxCell>
        <mxCell id="TgTTo747artbuSCOzgtK-49" style="edgeStyle=orthogonalEdgeStyle;rounded=0;orthogonalLoop=1;jettySize=auto;html=1;entryX=0.503;entryY=-0.002;entryDx=0;entryDy=0;entryPerimeter=0;dashed=1;" edge="1" parent="1" source="TgTTo747artbuSCOzgtK-18" target="TgTTo747artbuSCOzgtK-22">
          <mxGeometry relative="1" as="geometry" />
        </mxCell>
        <mxCell id="TgTTo747artbuSCOzgtK-52" style="edgeStyle=orthogonalEdgeStyle;rounded=0;orthogonalLoop=1;jettySize=auto;html=1;entryX=-0.001;entryY=0.501;entryDx=0;entryDy=0;entryPerimeter=0;" edge="1" parent="1" source="TgTTo747artbuSCOzgtK-22" target="TgTTo747artbuSCOzgtK-43">
          <mxGeometry relative="1" as="geometry" />
        </mxCell>
        <mxCell id="TgTTo747artbuSCOzgtK-53" style="edgeStyle=orthogonalEdgeStyle;rounded=0;orthogonalLoop=1;jettySize=auto;html=1;entryX=-0.007;entryY=0.5;entryDx=0;entryDy=0;entryPerimeter=0;" edge="1" parent="1" source="TgTTo747artbuSCOzgtK-43" target="TgTTo747artbuSCOzgtK-35">
          <mxGeometry relative="1" as="geometry" />
        </mxCell>
        <mxCell id="TgTTo747artbuSCOzgtK-54" style="edgeStyle=orthogonalEdgeStyle;rounded=0;orthogonalLoop=1;jettySize=auto;html=1;entryX=0;entryY=0.576;entryDx=0;entryDy=0;entryPerimeter=0;" edge="1" parent="1" source="TgTTo747artbuSCOzgtK-43" target="TgTTo747artbuSCOzgtK-31">
          <mxGeometry relative="1" as="geometry">
            <Array as="points">
              <mxPoint x="1150" y="640" />
            </Array>
          </mxGeometry>
        </mxCell>
        <mxCell id="TgTTo747artbuSCOzgtK-55" style="edgeStyle=orthogonalEdgeStyle;rounded=0;orthogonalLoop=1;jettySize=auto;html=1;entryX=-0.006;entryY=0.571;entryDx=0;entryDy=0;entryPerimeter=0;" edge="1" parent="1" source="TgTTo747artbuSCOzgtK-43" target="TgTTo747artbuSCOzgtK-39">
          <mxGeometry relative="1" as="geometry">
            <Array as="points">
              <mxPoint x="1150" y="745" />
              <mxPoint x="1150" y="859" />
            </Array>
          </mxGeometry>
        </mxCell>
        <mxCell id="TgTTo747artbuSCOzgtK-56" style="edgeStyle=orthogonalEdgeStyle;rounded=0;orthogonalLoop=1;jettySize=auto;html=1;entryX=0.497;entryY=-0.032;entryDx=0;entryDy=0;entryPerimeter=0;" edge="1" parent="1" source="TgTTo747artbuSCOzgtK-31" target="TgTTo747artbuSCOzgtK-46">
          <mxGeometry relative="1" as="geometry" />
        </mxCell>
        <mxCell id="TgTTo747artbuSCOzgtK-57" style="edgeStyle=orthogonalEdgeStyle;rounded=0;orthogonalLoop=1;jettySize=auto;html=1;entryX=0;entryY=0.5;entryDx=0;entryDy=0;entryPerimeter=0;" edge="1" parent="1" source="TgTTo747artbuSCOzgtK-35" target="TgTTo747artbuSCOzgtK-46">
          <mxGeometry relative="1" as="geometry" />
        </mxCell>
        <mxCell id="TgTTo747artbuSCOzgtK-58" style="edgeStyle=orthogonalEdgeStyle;rounded=0;orthogonalLoop=1;jettySize=auto;html=1;entryX=0.516;entryY=1.009;entryDx=0;entryDy=0;entryPerimeter=0;" edge="1" parent="1" source="TgTTo747artbuSCOzgtK-39" target="TgTTo747artbuSCOzgtK-46">
          <mxGeometry relative="1" as="geometry" />
        </mxCell>
        <mxCell id="TgTTo747artbuSCOzgtK-60" value="&lt;b&gt;J5&lt;/b&gt;" style="text;html=1;align=center;verticalAlign=middle;whiteSpace=wrap;rounded=0;" vertex="1" parent="1">
          <mxGeometry x="1126.25" y="760" width="20" height="20" as="geometry" />
        </mxCell>
        <mxCell id="TgTTo747artbuSCOzgtK-61" value="&lt;b&gt;J6&lt;/b&gt;" style="text;html=1;align=center;verticalAlign=middle;whiteSpace=wrap;rounded=0;" vertex="1" parent="1">
          <mxGeometry x="1346.25" y="760" width="20" height="20" as="geometry" />
        </mxCell>
      </root>
    </mxGraphModel>
  </diagram>
</mxfile>
